HIERARCHY
ROOT Hips
{
  OFFSET 0 0 0
  CHANNELS 6 Xposition Yposition Zposition Zrotation Yrotation Xrotation
  JOINT LeftThigh
  {
    OFFSET 8.409438 0 -5.917753
    CHANNELS 3 Zrotation Yrotation Xrotation
    JOINT LeftLeg
    {
      OFFSET 0 0 -42.358652
      CHANNELS 3 Zrotation Yrotation Xrotation
      JOINT LeftFoot
      {
        OFFSET 0 0 -39.357303
        CHANNELS 3 Zrotation Yrotation Xrotation
      }
    }
  }
  JOINT RightThigh
  {
    OFFSET -8.409438 0 -5.917753
    CHANNELS 3 Zrotation Yrotation Xrotation
    JOINT RightLeg
    {
      OFFSET 0 0 -42.358652
      CHANNELS 3 Zrotation Yrotation Xrotation
      JOINT RightFoot
      {
        OFFSET 0 0 -39.357303
        CHANNELS 3 Zrotation Yrotation Xrotation
      }
    }
  }
  JOINT SpineLow
  {
    OFFSET 0 0 4.719101
    CHANNELS 3 Zrotation Yrotation Xrotation
    JOINT SpineMid
    {
      OFFSET 0 0 12.899191
      CHANNELS 3 Zrotation Yrotation Xrotation
      JOINT Chest
      {
        OFFSET 0 0 12.899191
        CHANNELS 3 Zrotation Yrotation Xrotation
        JOINT LeftShoulder
        {
          OFFSET 7.550562 1.41573 9.438202
          CHANNELS 3 Zrotation Yrotation Xrotation
          JOINT LeftArm
          {
            OFFSET 9.155056 0 4.247191
            CHANNELS 3 Zrotation Yrotation Xrotation
            JOINT LeftForearm
            {
              OFFSET 0 0 25.771955
              CHANNELS 3 Zrotation Yrotation Xrotation
              JOINT LeftHand
              {
                OFFSET 0 0 25.197169
                CHANNELS 3 Zrotation Yrotation Xrotation
              }
            }
          }
        }
        JOINT RightShoulder
        {
          OFFSET -7.550562 1.41573 9.438202
          CHANNELS 3 Zrotation Yrotation Xrotation
          JOINT RightArm
          {
            OFFSET -9.155056 0 4.247191
            CHANNELS 3 Zrotation Yrotation Xrotation
            JOINT RightForearm
            {
              OFFSET 0 0 -25.771955
              CHANNELS 3 Zrotation Yrotation Xrotation
              JOINT RightHand
              {
                OFFSET 0 0 -25.197169
                CHANNELS 3 Zrotation Yrotation Xrotation
              }
            }
          }
        }
        JOINT Neck
        {
          OFFSET 0 0 15.101124
          CHANNELS 3 Zrotation Yrotation Xrotation
          JOINT Head
          {
            OFFSET 0 0 11.325843
            CHANNELS 3 Zrotation Yrotation Xrotation
            End Site
            {
              OFFSET 0 0 14.157303
            }
          }
        }
      }
    }
  }
}
MOTION
Frames: 8
Frame Time: 0.0
0.0  101.685394  0.0  2.059507  2.473254  -121.233332  15.657952  -30.550588  -82.23123  20.945831  0.71695  29.811143  -18.386286  -18.536398  3.783954  -7.521912  -0.151381  1.738528  12.386392  -0.085511  36.028888  6.131946  3.197457  6.36479  -1.516812  2.05143  6.272184  -3.592186  5.954088  17.050108  -3.592186  5.954088  17.050108  -18.189978  19.976615  -0.550947  -154.909091  56.42604  -105.646301  -36.614574  -31.763766  91.57678  74.41874  -13.243139  -16.824681  16.941441  -5.883752  25.046413  89.32037  47.361303  39.003457  -0.592218  10.877184  -110.174863  47.706126  9.948978  34.897013  0.950411  -1.00815  -3.462613  0.707104  -0.761528  -2.595332  
0.0  101.685394  0.0  1.033454  3.491086  -121.17403  20.597716  -22.366913  -85.415491  11.295232  6.873868  36.927265  -14.370132  -18.32946  3.276302  -8.060853  -1.820097  1.579298  12.668378  0.61542  36.484894  5.101628  3.583469  6.321893  -1.902658  1.877235  5.975858  -4.711619  5.560731  16.209904  -4.711619  5.560731  16.209904  -16.723558  22.325385  0.540983  -154.919781  57.302414  -104.454813  -36.384182  -33.230064  91.166245  74.859193  -13.006509  -16.936791  18.561786  -5.294596  26.896884  86.854527  47.096134  37.293397  0.235956  10.744661  -110.422701  47.688251  10.279146  35.088232  1.616463  -0.591201  -2.690546  1.209762  -0.450531  -2.016344  
0.0  101.685394  0.0  0.263912  4.120049  -121.120805  23.305368  -15.566041  -86.009649  2.967326  13.348451  41.195973  -9.254524  -18.707286  3.801996  -8.791628  -3.31173  1.602917  13.240081  1.763076  36.746344  4.61161  3.728809  6.165117  -2.325817  1.698011  5.724999  -5.926353  5.155811  15.497283  -5.926353  5.155811  15.497283  -14.558083  24.852006  1.315566  -155.355615  58.418549  -103.467454  -36.653628  -34.469634  90.799574  74.724456  -12.849188  -16.944967  20.580016  -4.387622  28.722567  84.629009  47.19561  35.785803  1.295651  10.234005  -110.670291  47.736461  10.709374  35.283623  2.749319  0.200263  -1.921972  2.062641  0.141556  -1.442413  
0.0  101.685394  0.0  -0.120096  4.188473  -121.092154  25.484025  -11.942545  -84.5904  -1.53011  18.164003  44.385843  -6.13816  -18.649388  4.09637  -9.301484  -4.349268  1.700722  13.66475  2.649344  37.065923  4.783199  3.969452  5.85868  -2.62443  1.546269  5.626316  -6.780975  4.803485  15.214607  -6.780975  4.803485  15.214608  -12.767618  27.014307  1.341871  -155.937884  59.625094  -102.640904  -37.383775  -35.176883  90.626701  74.354046  -12.652465  -16.635228  22.260562  -3.413165  29.769637  82.850062  47.551995  34.558562  2.264633  9.563076  -110.734814  47.913581  11.193007  35.509573  3.850198  0.99359  -1.672605  2.890321  0.734697  -1.260742  
0.0  101.685394  0.0  -0.103865  3.694815  -121.205306  27.552458  -11.000652  -83.441966  -0.329118  19.035537  50.086513  -7.875536  -18.180958  3.360172  -9.042262  -4.949007  1.864705  13.850756  3.057367  37.269258  4.965325  4.184649  5.654964  -2.720128  1.463422  5.595875  -7.062013  4.597284  15.131003  -7.062013  4.597285  15.131003  -11.371796  28.493112  1.480646  -156.616452  60.498247  -101.929221  -38.324393  -35.297475  90.610032  73.819994  -12.395068  -16.128562  23.218164  -2.748273  30.55311  81.55082  48.096054  33.553669  2.69224  9.018761  -110.675937  48.053626  11.384327  35.644647  4.731578  1.598539  -1.616186  3.55271  1.186487  -1.224527  
0.0  101.685394  0.0  0.275563  2.932061  -121.436826  28.657624  -9.856329  -82.666078  -0.645291  19.472983  56.250295  -7.061866  -17.456316  2.181321  -8.031174  -5.086147  2.204009  13.550934  3.40242  37.148505  5.2418  4.0892  5.5808  -2.584551  1.466244  5.616311  -6.69089  4.576252  15.196758  -6.69089  4.576252  15.196757  -10.858387  29.076672  1.700006  -157.349894  60.941475  -101.522016  -39.254915  -34.901414  90.70764  73.285536  -12.114511  -15.50983  23.115313  -2.59963  30.820942  80.606745  48.577414  32.687058  2.695642  8.722944  -110.450962  48.14526  11.342058  35.762942  5.120798  1.907507  -1.588459  3.845234  1.417451  -1.207323  
0.0  101.685394  0.0  0.84968  2.436832  -121.669997  29.05819  -10.403149  -82.24174  0.9761  20.524845  62.158238  -4.877867  -16.943137  1.67587  -7.100837  -4.676466  2.700777  13.028506  3.827953  36.709018  5.804662  3.684454  5.555334  -2.288142  1.556488  5.735244  -5.855043  4.763823  15.537719  -5.855043  4.763823  15.537719  -11.568613  28.607019  1.561228  -158.03933  60.958968  -101.439377  -39.962124  -34.298542  90.8535  72.903306  -11.828922  -14.911748  21.945133  -2.955373  29.969751  79.845667  48.765445  31.932445  2.455123  8.484187  -110.04357  48.227115  11.179167  35.749559  4.916103  1.781825  -1.750311  3.69192  1.322405  -1.327066  
0.0  101.685394  0.0  1.412987  2.486133  -121.708528  28.070764  -13.300553  -82.083786  5.514307  20.3087  68.1854  -2.931922  -16.002418  1.268553  -6.679347  -3.864384  3.073507  12.66913  4.126099  36.163113  6.441476  3.14409  5.540761  -1.962522  1.693386  5.833508  -4.929858  5.066513  15.824003  -4.929857  5.066512  15.824002  -12.828106  27.510108  1.555972  -158.82461  60.56036  -101.927881  -40.350829  -33.784214  91.061287  72.702994  -11.54985  -14.463505  20.158852  -3.668565  28.743162  79.042726  48.647577  31.095409  2.215687  8.310989  -109.638868  48.163865  10.987502  35.692557  4.335249  1.339901  -1.793959  3.255256  0.99227  -1.354995  
